<svg id="Calque_1" data-name="Calque 1" xmlns="http://www.w3.org/2000/svg" viewBox="0 0 1024 1024"><defs><style>.cls-1{fill:#eea21d;}.cls-2{fill:#fff;}</style></defs><rect class="cls-1" width="1024" height="1024" rx="180.04"/><rect class="cls-2" x="102" y="102" width="820" height="820" rx="84.67"/><path class="cls-1" d="M828.62,364.57a21.1,21.1,0,0,1-21.09-21.1V235.37a18.48,18.48,0,0,0-18.46-18.46H681a21.09,21.09,0,1,1,0-42.18h108.1a60.7,60.7,0,0,1,60.64,60.64v108.1A21.1,21.1,0,0,1,828.62,364.57Z" transform="translate(0.69 0.69)"/><path class="cls-1" d="M195.82,364.57a21.1,21.1,0,0,1-21.09-21.1V235.37a60.7,60.7,0,0,1,60.64-60.64h108.1a21.09,21.09,0,1,1,0,42.18H235.37a18.48,18.48,0,0,0-18.46,18.46v108.1A21.1,21.1,0,0,1,195.82,364.57Z" transform="translate(0.69 0.69)"/><path class="cls-1" d="M343.47,849.71H235.37a60.7,60.7,0,0,1-60.64-60.64V681a21.09,21.09,0,1,1,42.18,0v108.1a18.48,18.48,0,0,0,18.46,18.46h108.1a21.09,21.09,0,1,1,0,42.18Z" transform="translate(0.69 0.69)"/><path class="cls-1" d="M789.07,849.71H681a21.09,21.09,0,1,1,0-42.18h108.1a18.48,18.48,0,0,0,18.46-18.46V681a21.09,21.09,0,1,1,42.18,0v108.1A60.7,60.7,0,0,1,789.07,849.71Z" transform="translate(0.69 0.69)"/><path class="cls-1" d="M430.48,491.13H319.74a60.72,60.72,0,0,1-60.64-60.65V319.74a60.72,60.72,0,0,1,60.64-60.64H430.48a60.72,60.72,0,0,1,60.65,60.64V430.48A60.72,60.72,0,0,1,430.48,491.13ZM319.74,301.29a18.48,18.48,0,0,0-18.45,18.45V430.48a18.48,18.48,0,0,0,18.45,18.46H430.48a18.48,18.48,0,0,0,18.46-18.46V319.74a18.48,18.48,0,0,0-18.46-18.45Z" transform="translate(0.69 0.69)"/><path class="cls-1" d="M430.48,765.34H319.74A60.72,60.72,0,0,1,259.1,704.7V594a60.72,60.72,0,0,1,60.64-60.65H430.48A60.72,60.72,0,0,1,491.13,594V704.7A60.72,60.72,0,0,1,430.48,765.34ZM319.74,575.5A18.48,18.48,0,0,0,301.29,594V704.7a18.48,18.48,0,0,0,18.45,18.45H430.48a18.48,18.48,0,0,0,18.46-18.45V594a18.48,18.48,0,0,0-18.46-18.46Z" transform="translate(0.69 0.69)"/><path class="cls-1" d="M704.7,491.13H594a60.72,60.72,0,0,1-60.65-60.65V319.74A60.72,60.72,0,0,1,594,259.1H704.7a60.72,60.72,0,0,1,60.64,60.64V430.48A60.72,60.72,0,0,1,704.7,491.13ZM594,301.29a18.48,18.48,0,0,0-18.46,18.45V430.48A18.48,18.48,0,0,0,594,448.94H704.7a18.48,18.48,0,0,0,18.45-18.46V319.74a18.48,18.48,0,0,0-18.45-18.45Z" transform="translate(0.69 0.69)"/><path class="cls-1" d="M731.06,638.78H681V567.59a34.32,34.32,0,0,0-34.28-34.28h-79.1a34.32,34.32,0,0,0-34.28,34.28v79.1A34.32,34.32,0,0,0,567.59,681h71.19v50.09a34.32,34.32,0,0,0,34.28,34.28h58a34.32,34.32,0,0,0,34.28-34.28v-58A34.32,34.32,0,0,0,731.06,638.78ZM575.5,575.5h63.28v63.28H575.5ZM723.15,723.15H681V681h42.18Z" transform="translate(0.69 0.69)"/><path class="cls-1" d="M385.66,406.75H364.57a21.1,21.1,0,0,1-21.1-21.09V364.57a21.1,21.1,0,0,1,21.1-21.1h21.09a21.1,21.1,0,0,1,21.09,21.1v21.09A21.09,21.09,0,0,1,385.66,406.75Z" transform="translate(0.69 0.69)"/><path class="cls-1" d="M659.87,406.75H638.78a21.09,21.09,0,0,1-21.09-21.09V364.57a21.1,21.1,0,0,1,21.09-21.1h21.09a21.1,21.1,0,0,1,21.1,21.1v21.09A21.1,21.1,0,0,1,659.87,406.75Z" transform="translate(0.69 0.69)"/><path class="cls-1" d="M385.66,681H364.57a21.1,21.1,0,0,1-21.1-21.1V638.78a21.1,21.1,0,0,1,21.1-21.09h21.09a21.09,21.09,0,0,1,21.09,21.09v21.09A21.1,21.1,0,0,1,385.66,681Z" transform="translate(0.69 0.69)"/></svg>