<svg id="Calque_1" data-name="Calque 1" xmlns="http://www.w3.org/2000/svg" xmlns:xlink="http://www.w3.org/1999/xlink" viewBox="0 0 1024 1024"><defs><style>.cls-1{fill:url(#Dégradé_sans_nom_5);}.cls-2{fill:#fff;}</style><linearGradient id="Dégradé_sans_nom_5" x1="1037.12" y1="-13.12" x2="31.76" y2="992.24" gradientUnits="userSpaceOnUse"><stop offset="0" stop-color="#62e9d5"/><stop offset="1" stop-color="#1e80b4"/></linearGradient></defs><rect class="cls-1" width="1024" height="1024" rx="180.04"/><path class="cls-2" d="M872.87,138.69H798.2a12.45,12.45,0,0,0,0,24.89h62.22V225.8a12.45,12.45,0,0,0,24.89,0V151.13A12.44,12.44,0,0,0,872.87,138.69Z" transform="translate(0.69 0.69)"/><path class="cls-2" d="M151.13,238.24a12.44,12.44,0,0,0,12.45-12.44V163.58H225.8a12.45,12.45,0,0,0,0-24.89H151.13a12.44,12.44,0,0,0-12.44,12.44V225.8A12.44,12.44,0,0,0,151.13,238.24Z" transform="translate(0.69 0.69)"/><path class="cls-2" d="M872.87,785.76a12.44,12.44,0,0,0-12.45,12.44v62.22H798.2a12.45,12.45,0,0,0,0,24.89h74.67a12.44,12.44,0,0,0,12.44-12.44V798.2A12.44,12.44,0,0,0,872.87,785.76Z" transform="translate(0.69 0.69)"/><path class="cls-2" d="M151.13,885.31H225.8a12.45,12.45,0,0,0,0-24.89H163.58V798.2a12.45,12.45,0,0,0-24.89,0v74.67A12.44,12.44,0,0,0,151.13,885.31Z" transform="translate(0.69 0.69)"/><path class="cls-2" d="M188.47,200.91v224a12.44,12.44,0,0,0,12.44,12.45h224a12.44,12.44,0,0,0,12.45-12.45v-224a12.44,12.44,0,0,0-12.45-12.44h-224A12.44,12.44,0,0,0,188.47,200.91Zm24.88,12.44h199.1v199.1H213.35Z" transform="translate(0.69 0.69)"/><path class="cls-2" d="M375.12,238.24H250.68a12.44,12.44,0,0,0-12.44,12.44V375.12a12.44,12.44,0,0,0,12.44,12.44H375.12a12.44,12.44,0,0,0,12.44-12.44V250.68A12.44,12.44,0,0,0,375.12,238.24ZM362.68,362.68H263.13V263.13h99.55Z" transform="translate(0.69 0.69)"/><path class="cls-2" d="M375.12,636.44H250.68a12.44,12.44,0,0,0-12.44,12.44V773.32a12.44,12.44,0,0,0,12.44,12.44H375.12a12.44,12.44,0,0,0,12.44-12.44V648.88A12.44,12.44,0,0,0,375.12,636.44ZM362.68,760.87H263.13V661.32h99.55Z" transform="translate(0.69 0.69)"/><path class="cls-2" d="M773.32,238.24H648.88a12.44,12.44,0,0,0-12.44,12.44V375.12a12.44,12.44,0,0,0,12.44,12.44H773.32a12.44,12.44,0,0,0,12.44-12.44V250.68A12.44,12.44,0,0,0,773.32,238.24ZM760.87,362.68H661.32V263.13h99.55Z" transform="translate(0.69 0.69)"/><path class="cls-2" d="M599.11,436.56h224a12.44,12.44,0,0,0,12.44-12.44V200.91a12.44,12.44,0,0,0-12.44-12.44h-224a12.44,12.44,0,0,0-12.45,12.44V424.12A12.44,12.44,0,0,0,599.11,436.56Zm12.44-223.21h199.1V411.67H611.55Z" transform="translate(0.69 0.69)"/><path class="cls-2" d="M188.47,823.09a12.44,12.44,0,0,0,12.44,12.44h224a12.44,12.44,0,0,0,12.45-12.44v-224a12.44,12.44,0,0,0-12.45-12.45h-224a12.44,12.44,0,0,0-12.44,12.45Zm24.88-211.54h199.1v199.1H213.35Z" transform="translate(0.69 0.69)"/><path class="cls-2" d="M474.67,288a12.44,12.44,0,0,0,12.44-12.44V213.35h12.45a12.44,12.44,0,0,0,0-24.88H474.67a12.44,12.44,0,0,0-12.44,12.44v74.66A12.44,12.44,0,0,0,474.67,288Z" transform="translate(0.69 0.69)"/><circle class="cls-2" cx="550.02" cy="201.6" r="12.44"/><path class="cls-2" d="M524.44,288h24.89a12.44,12.44,0,0,0,12.44-12.44V250.68a12.44,12.44,0,1,0-24.88,0v12.45H524.44a12.44,12.44,0,0,0,0,24.88Z" transform="translate(0.69 0.69)"/><path class="cls-2" d="M549.33,325.35H524.44A12.44,12.44,0,0,0,512,337.79v49.77a12.45,12.45,0,1,0,24.89,0V350.23h12.44a12.44,12.44,0,0,0,0-24.88Z" transform="translate(0.69 0.69)"/><path class="cls-2" d="M474.67,437.34h74.66a12.45,12.45,0,0,0,0-24.89H487.11v-87.1a12.44,12.44,0,1,0-24.88,0v99.54A12.44,12.44,0,0,0,474.67,437.34Z" transform="translate(0.69 0.69)"/><path class="cls-2" d="M574.22,736a12.45,12.45,0,0,0-12.45,12.44v62.22H524.44a12.44,12.44,0,0,0,0,24.88h49.78a12.44,12.44,0,0,0,12.44-12.44V748.43A12.44,12.44,0,0,0,574.22,736Z" transform="translate(0.69 0.69)"/><circle class="cls-2" cx="475.36" cy="823.78" r="12.44"/><path class="cls-2" d="M474.67,785.76a12.44,12.44,0,0,0,12.44-12.44V760.87h37.33a12.44,12.44,0,1,0,0-24.88H474.67a12.44,12.44,0,0,0-12.44,12.44v24.89A12.44,12.44,0,0,0,474.67,785.76Z" transform="translate(0.69 0.69)"/><path class="cls-2" d="M474.67,611.55a12.44,12.44,0,0,0,12.44-12.44V536.89H512A12.45,12.45,0,0,0,512,512H474.67a12.44,12.44,0,0,0-12.44,12.44v74.67A12.44,12.44,0,0,0,474.67,611.55Z" transform="translate(0.69 0.69)"/><path class="cls-2" d="M474.67,487.11h74.66v62.22a12.45,12.45,0,0,0,24.89,0V474.67a12.44,12.44,0,0,0-12.45-12.44h-87.1a12.44,12.44,0,0,0,0,24.88Z" transform="translate(0.69 0.69)"/><path class="cls-2" d="M188.47,549.33a12.44,12.44,0,0,0,12.44,12.44h74.66a12.44,12.44,0,1,0,0-24.88H213.35V524.44a12.44,12.44,0,0,0-24.88,0Z" transform="translate(0.69 0.69)"/><path class="cls-2" d="M250.68,512a12.44,12.44,0,0,0,12.45-12.44V474.67a12.44,12.44,0,0,0-12.45-12.44H200.91a12.44,12.44,0,1,0,0,24.88h37.33v12.45A12.44,12.44,0,0,0,250.68,512Z" transform="translate(0.69 0.69)"/><path class="cls-2" d="M300.46,462.23A12.45,12.45,0,0,0,288,474.67v24.89A12.45,12.45,0,0,0,300.46,512h74.66a12.45,12.45,0,0,0,0-24.89H312.9V474.67A12.44,12.44,0,0,0,300.46,462.23Z" transform="translate(0.69 0.69)"/><path class="cls-2" d="M437.34,474.67a12.45,12.45,0,0,0-24.89,0v62.22h-87.1a12.44,12.44,0,1,0,0,24.88h99.54a12.44,12.44,0,0,0,12.45-12.44Z" transform="translate(0.69 0.69)"/><path class="cls-2" d="M835.53,474.67a12.44,12.44,0,0,0-12.44-12.44H748.43a12.44,12.44,0,1,0,0,24.88h62.22v12.45a12.44,12.44,0,1,0,24.88,0Z" transform="translate(0.69 0.69)"/><circle class="cls-2" cx="612.24" cy="599.8" r="12.44"/><path class="cls-2" d="M785.76,549.33V524.44a12.45,12.45,0,0,0-24.89,0v12.45H711.1a12.44,12.44,0,1,0,0,24.88h62.22A12.44,12.44,0,0,0,785.76,549.33Z" transform="translate(0.69 0.69)"/><path class="cls-2" d="M773.32,686.21H723.54a12.45,12.45,0,0,0,0,24.89h37.33v12.44a12.45,12.45,0,1,0,24.89,0V698.65A12.44,12.44,0,0,0,773.32,686.21Z" transform="translate(0.69 0.69)"/><circle class="cls-2" cx="774.01" cy="774.01" r="12.44"/><circle class="cls-2" cx="674.46" cy="699.35" r="12.44"/><path class="cls-2" d="M723.54,760.87H686.21V748.43a12.45,12.45,0,0,0-24.89,0v24.89a12.45,12.45,0,0,0,12.45,12.44h49.77a12.45,12.45,0,1,0,0-24.89Z" transform="translate(0.69 0.69)"/><path class="cls-2" d="M661.32,512a12.44,12.44,0,0,0-12.44,12.44v74.67a12.44,12.44,0,0,0,12.44,12.44H722a12.45,12.45,0,0,0,0-24.89H673.77V524.44A12.44,12.44,0,0,0,661.32,512Z" transform="translate(0.69 0.69)"/><path class="cls-2" d="M698.65,462.23h-87.1a12.44,12.44,0,0,0-12.44,12.44v74.66a12.44,12.44,0,0,0,24.88,0V487.11h74.66a12.44,12.44,0,1,0,0-24.88Z" transform="translate(0.69 0.69)"/><path class="cls-2" d="M474.67,711.1h99.55a12.44,12.44,0,0,0,12.44-12.45V648.88a12.44,12.44,0,0,0-12.44-12.44H474.67a12.44,12.44,0,0,0-12.44,12.44v49.77A12.44,12.44,0,0,0,474.67,711.1Zm12.44-49.78h74.66v24.89H487.11Z" transform="translate(0.69 0.69)"/><path class="cls-2" d="M624,835.53h199.1a12.44,12.44,0,0,0,12.44-12.44V648.88a12.44,12.44,0,0,0-12.44-12.44H624a12.44,12.44,0,0,0-12.44,12.44V823.09A12.44,12.44,0,0,0,624,835.53Zm12.45-174.21H810.65V810.65H636.44Z" transform="translate(0.69 0.69)"/><path class="cls-2" d="M561.77,586.66H538.44a12.45,12.45,0,0,0,0,24.89h23.33a12.45,12.45,0,1,0,0-24.89Z" transform="translate(0.69 0.69)"/><path class="cls-2" d="M835.53,549.33a12.44,12.44,0,1,0-24.88,0v37.33H773.32a12.45,12.45,0,1,0,0,24.89h49.77a12.44,12.44,0,0,0,12.44-12.44Z" transform="translate(0.69 0.69)"/></svg>