<svg id="Calque_1" data-name="Calque 1" xmlns="http://www.w3.org/2000/svg" xmlns:xlink="http://www.w3.org/1999/xlink" viewBox="0 0 1024 1024"><defs><style>.cls-1{fill:url(#Dégradé_sans_nom_4);}.cls-2{fill:#fff;}.cls-3{fill:none;stroke:#fff;stroke-linecap:round;stroke-linejoin:round;stroke-width:39px;}</style><linearGradient id="Dégradé_sans_nom_4" x1="1029.57" y1="-5.57" x2="-5.02" y2="1029.02" gradientUnits="userSpaceOnUse"><stop offset="0" stop-color="#c590de"/><stop offset="1" stop-color="#6668d9"/></linearGradient></defs><rect class="cls-1" width="1024" height="1024" rx="180.04"/><path class="cls-2" d="M420,232.59H232.31V420.24H420Zm-27.6,160H259.91V260.18H392.37Zm-23.46-24.83H285.3V284.19h83.61Zm-136.6,423.6H420V603.76H232.31Zm27.6-160H392.37V763.82H259.91Zm25.39,24h83.61V739H285.3ZM604,232.59V420.24H791.69V232.59Zm160.06,160H631.63V260.18H764.09Zm-23.45-24.83H657V284.19h83.62ZM517,484.28V511H490V484.28Zm27,.46h27v26.71H544V537.7H517V511h27ZM571,458V431.54h27V458h31.79v26.71H571V458ZM544,564.41V537.7h27v26.71Zm-54,0h54v26.71h-.16V648h-27V591.12H490ZM687.79,604.8h61.73V628H687.79Zm0-21.71V604.8H663.85V583.09H626.07V559.94h61.72v23.15Zm38.32-62.56h23.41v60.59h23.94V604.8H749.52V581.58H726.11Zm-275.24-89h27v26.71h-27Zm54-24.74H546V314.7h25V431.54H477.88V381.48h27Zm-27-52v26.71h-27V354.77Zm27,0h-27V328.06h27Zm40.84-40.07h-27V288h27Zm-64.78-59H443.16V232.59h61.72v44.86H480.94ZM333.14,502v61.05H309.73v-37H285.41V553H232.34V452.31h26.73v26.44h26.34V502h47.73Zm21.95,0H333.14V478.36h21.95V441h23.42V502H355.09Zm63.26,84.73V563.09h23.94v23.68Zm0-46.84v23.16H357.09v23.68H333.14V563.09h23.48V539.93Zm58.8,0h-58.8v-53.2h27v26.49h31.8Zm69.44,165.79v26.71h-27V705.72H493.05V679h27v26.71Zm27,26.71h26.79v26.71H573.6v31.45h-27V732.43h27ZM466.05,705.72h27v26.71h-27Zm0-53.41v53.41H439V652.31Zm134.34-12h25v92.1h-25Zm0-26.71v26.71h-27V613.62ZM645,748.11h104.5V643.61H645ZM660.39,659h73.76v73.76H660.39Zm14.14,13.36h46.56v46.57H674.53Zm75-226.56v27H722.81v-27Zm0,27h23.94v47.74H749.52V472.79ZM629.79,486.58H656.5v26h26.71v27H656.5v-26H629.79Zm61.84-28.19h-61V435h61Zm-107,140.34v-58.8h26.71v58.8Z" transform="translate(0.69 0.69)"/><path class="cls-3" d="M278.08,156.82H211.3a49,49,0,0,0-49,49v51" transform="translate(0.69 0.69)"/><path class="cls-3" d="M859.31,272.59V205.81a49,49,0,0,0-49-49h-51" transform="translate(0.69 0.69)"/><path class="cls-3" d="M743.54,867.8h66.78a49,49,0,0,0,49-49v-51" transform="translate(0.69 0.69)"/><path class="cls-3" d="M162.31,752v66.78a49,49,0,0,0,49,49h51" transform="translate(0.69 0.69)"/><path class="cls-2" d="M42.12,511.23c19.59-3.53,39.18-6.31,58.77-8.89s39.17-4.83,58.76-6.89c39.17-4.09,78.35-7.28,117.52-9.85,78.35-5.1,156.7-7.63,235.05-8.23s156.69,1,235,6c39.18,2.47,78.35,5.8,117.53,10.21,19.58,2.21,39.17,4.67,58.76,7.55l14.69,2.22,14.69,2.4c9.79,1.7,19.59,3.39,29.38,5.5-9.79,2.11-19.59,3.8-29.38,5.5l-14.69,2.4-14.69,2.22c-19.59,2.88-39.18,5.34-58.76,7.55-39.18,4.41-78.35,7.74-117.53,10.22-78.35,5-156.69,6.64-235,6s-156.7-3.13-235-8.23C238,534.29,198.82,531.1,159.65,527c-19.59-2.06-39.18-4.27-58.76-6.89S61.71,514.77,42.12,511.23Z" transform="translate(0.69 0.69)"/></svg>